<?xml version="1.0" encoding="UTF-8"?>
<!DOCTYPE svg PUBLIC "-//W3C//DTD SVG 1.1//EN" "http://www.w3.org/Graphics/SVG/1.1/DTD/svg11.dtd">
<!-- Creator: CorelDRAW -->
<svg xmlns="http://www.w3.org/2000/svg" xml:space="preserve" width="219px" height="256px" version="1.1" style="shape-rendering:geometricPrecision; text-rendering:geometricPrecision; image-rendering:optimizeQuality; fill-rule:evenodd; clip-rule:evenodd"
viewBox="0 0 173.89 203.58"
 xmlns:xlink="http://www.w3.org/1999/xlink"
 xmlns:xodm="http://www.corel.com/coreldraw/odm/2003">
 <defs>
  <style type="text/css">
   <![CDATA[
    .str0 {stroke:#043A52;stroke-width:1.59;stroke-miterlimit:22.9256}
    .fil0 {fill:#03A0D6}
    .fil1 {fill:#043A52}
    .fil4 {fill:#16749C}
    .fil3 {fill:#5BAA2C}
    .fil2 {fill:#61C6D8}
   ]]>
  </style>
 </defs>
 <g id="Camada_x0020_1">
  <metadata id="CorelCorpID_0Corel-Layer"/>
  <path class="fil0 str0" d="M134.7 132.95c2.35,1.5 1.14,1.02 2.79,3.66 0.79,1.27 1.58,3.82 1.56,5.33 -0.1,8.05 0.28,19.34 -0.01,26.78 -0.09,2.38 -1.6,6.32 -2.91,8.19l-3.09 3.45c-0.42,0.47 0.01,0.11 -0.5,0.48 -0.29,0.22 -0.79,0.42 -1.06,0.59l-4.48 2.38c-4.18,1.67 -34.34,0.92 -40.06,0.93 -6.07,0.02 -35.08,0.66 -39.78,-0.88 -2.06,-0.67 -2.85,-1.05 -4.7,-2.16l-0.41 -0.25c-0.06,-0.04 -0.14,-0.09 -0.2,-0.13l-3.74 -3.77c-0.9,-1.17 -1.03,-1.85 -1.72,-3.21 -2.27,-4.51 -1.65,-13.56 -1.62,-18.87 0.03,-5.27 -0.85,-14.19 1.32,-18.86 0.68,-1.46 0.55,-1.03 1.32,-1.93 0.81,-0.94 0.75,-1.11 1.93,-1.67 -8.05,-11.39 -9.21,-30.47 -5.03,-44.51 0.75,-2.55 3.43,-8.68 4.87,-11.14 2.34,-4 4.36,-5.95 6.52,-9.16l4.66 -4.45c1.71,-1.1 0.83,-0.82 1.69,-1.58l4.79 -3.37c14.09,-9.1 30.03,-10.57 46.04,-6.41 5.22,1.35 11.28,4.52 15.73,7.77l1.15 0.81c0.08,0.06 0.3,0.22 0.38,0.28l1.42 1.18c0.06,0.04 0.14,0.1 0.2,0.13 2.94,1.92 4.68,4.6 7.11,6.61l4.82 6.6c7.91,12.89 10.42,29.64 6.5,44.48 -1.09,4.13 -1.71,6.26 -3.81,9.91l-1.68 2.79zm-90.18 -97.61c-3.68,0.4 -7.48,1.85 -10.41,3.99l-0.57 0.41c-0.06,0.04 -0.13,0.1 -0.18,0.15 -0.41,0.37 -0.1,0.11 -0.47,0.5 -3.76,3.94 -5.54,4.36 -7.55,11.68 -1.82,6.62 -0.92,26.49 -0.93,34.87 -0.01,8.48 -0.5,84.55 0.26,89.09 0.49,2.85 0.97,4.42 1.86,6.93 0.87,2.44 3.31,5.37 5.2,6.86 0.05,0.04 0.13,0.1 0.18,0.14l0.97 0.96c6.86,5.86 17.03,4.44 25.67,4.43 6.38,0 66.67,0.34 71.14,-0.11 2.54,-0.25 4.61,-1 6.94,-1.85 1.05,-0.38 1.97,-0.9 2.77,-1.46 1.48,-1.03 3.9,-2.75 4.72,-4.08 2.07,-3.35 2.96,-2.77 4.6,-9.11 0.89,-3.41 0.49,-29.43 0.47,-35.02 -0.02,-8.52 0.39,-84.8 -0.16,-88.77 -0.47,-3.32 -2.26,-7.5 -4.15,-10.29 -2.07,-3.06 -3.24,-3.98 -6.37,-6.01 -6.76,-4.41 -15.11,-3.66 -23.18,-3.7 -11.85,-0.06 -23.71,0.02 -35.56,0 -10.86,-0.01 -24.84,-0.76 -35.25,0.39z"/>
  <path class="fil1 str0" d="M44.52 35.34c10.41,-1.15 24.39,-0.4 35.25,-0.39 11.85,0.02 23.71,-0.06 35.56,0 8.07,0.04 16.42,-0.71 23.18,3.7 3.13,2.03 4.3,2.95 6.37,6.01 1.89,2.79 3.68,6.97 4.15,10.29 0.55,3.97 0.14,80.25 0.16,88.77 0.02,5.59 0.42,31.61 -0.47,35.02 -1.64,6.34 -2.53,5.76 -4.6,9.11 -0.82,1.33 -3.24,3.05 -4.72,4.08 -0.8,0.56 -1.72,1.08 -2.77,1.46 -2.33,0.85 -4.4,1.6 -6.94,1.85 -4.47,0.45 -64.76,0.11 -71.14,0.11 -8.64,0.01 -18.81,1.43 -25.67,-4.43l-0.97 -0.96c-0.05,-0.04 -0.13,-0.1 -0.18,-0.14 -1.89,-1.49 -4.33,-4.42 -5.2,-6.86 -0.89,-2.51 -1.37,-4.08 -1.86,-6.93 -0.76,-4.54 -0.27,-80.61 -0.26,-89.09 0.01,-8.38 -0.89,-28.25 0.93,-34.87 2.01,-7.32 3.79,-7.74 7.55,-11.68 0.37,-0.39 0.06,-0.13 0.47,-0.5 0.05,-0.05 0.12,-0.11 0.18,-0.15l0.57 -0.41c2.93,-2.14 6.73,-3.59 10.41,-3.99zm111.68 96.94l9.65 0.09c0.16,7.54 0.01,15.22 0.01,22.78 0,4.7 0.02,5.6 -2.39,8.95 -1.71,2.39 -4.4,3.58 -7.32,4.19l0.05 -36.01zm-138.52 36.05c-3.64,-0.87 -6.04,-2.21 -7.44,-4.37 -2.37,-3.61 -2.25,-4.26 -2.21,-9.14 0.06,-6.55 0.56,-16.33 -0.07,-22.54l9.7 -0.07 0.02 36.12zm138.53 -58.91c1.57,0.22 3.89,1.44 4.75,2.04 4.88,3.43 5.16,7.96 4.92,13.94 -1.25,0.05 -8.38,0.2 -9.74,-0.28l0.07 -15.7zm-148.14 15.94c-0.18,-3.71 -0.42,-7.94 1.66,-10.86 1.62,-2.28 4.04,-4.57 7.94,-5.16l-0.05 16.08 -9.55 -0.06zm120.22 -105.44l15.55 0.02 0.06 13.96c-2.83,-1.21 -7,-5.37 -15.63,-5.85l0.02 -8.13zm-98.34 -0.05c1.96,0.08 14.17,-0.31 15.82,0.39l0.15 7.72c-9.17,1.14 -9.9,2.9 -15.88,5.78l-0.09 -13.89zm40.35 3.44c0,-9.25 5.51,-14.36 14.69,-14.36 5.45,0 9.38,-0.01 13.52,2.8 5.55,3.77 4.75,10.2 4.75,15.8l-32.96 0 0 -4.24zm-8.48 4.24l-8.81 0c0,-4.83 1.04,-14.68 -7.18,-14.68l-15.67 0c-3.36,0 -6.3,2.82 -7.02,5.7 -0.78,3.04 -0.5,14.29 -0.48,18.77 0.02,4.04 0.19,2.73 -1.29,5.24 -1.42,2.39 -2.88,6.52 -3.53,9.52 -1.33,6.17 -0.73,40.98 -0.73,50.18 -4.49,1.05 -8.22,2.2 -11.65,6.29 -1.16,1.38 -2.64,4.08 -3.36,5.78 -0.76,1.81 -1.3,5.23 -1.3,7.84l0 33.93c0,6.86 2.99,13.19 8.78,16.67 2.92,1.76 4.59,2.26 7.86,2.26 0,15.52 13.4,27.74 29.04,27.74l80.6 0c4.7,0 8.08,-1.02 11.47,-2.24 3.63,-1.3 5.81,-3.24 8.44,-5.27 5.81,-4.47 9.13,-12.74 9.13,-20.23 10.1,0 16.97,-10 16.97,-18.27l0 -35.25c0,-5.49 -1.96,-9.24 -4.89,-13.05 -2.03,-2.64 -7.41,-6.2 -12.08,-6.2l0 -45.36c0,-9.86 -4.01,-13.33 -5,-15.88 -0.69,-1.79 -0.22,-4.88 -0.22,-6.96 0,-5.95 1.27,-15.01 -2.09,-18.79 -0.81,-0.9 -3.27,-2.42 -4.76,-2.42l-16.32 0c-7.96,0 -6.85,9.86 -6.85,14.68l-9.46 0c-0.14,-1.61 -0.12,-0.67 -0.03,-2.29 0.8,-14.3 -8.94,-24.46 -22.81,-24.46 -5.61,0 -8.72,0.02 -13.95,2.36 -3.04,1.36 -5.23,3.12 -7.19,5.54 -4.1,5.02 -5.28,10.87 -4.84,17.2 0.07,1.08 0.31,1.65 -0.78,1.65z"/>
  <path class="fil1 str0" d="M41.87 155.13l8.21 0c0.15,4.29 -1.03,10.01 3.92,10.1 4.77,0.08 3.91,-6.26 3.65,-10.41l74.62 0.04c-0.33,5.38 0.61,11.75 -1.19,16.38 -0.43,1.1 -1.13,1.71 -1.79,2.42 -2.64,2.79 -3.98,3.9 -8.73,4.14 -7.23,0.37 -25.55,0.02 -33.94,0 -7.87,-0.02 -27.77,0.37 -33.95,-0.02 -4.91,-0.31 -8.39,-2.56 -10.06,-7.01 -1.15,-3.04 -1.14,-12 -0.74,-15.64zm90.11 -7.18l-90.2 0.06c0.38,-4.4 -1.24,-9.36 3.33,-10.42 1.43,-0.33 82.34,-0.23 83.49,0.05 4.29,1.06 3.51,5.89 3.38,10.31zm-64.26 -40.36c4.73,-0.69 7.5,-2.43 12.82,0.42 1.91,1.02 1.03,0.39 2.66,2.61 0.04,0.05 0.09,0.13 0.13,0.18 0.05,0.06 0.1,0.14 0.14,0.2 7.16,10.02 13.55,5.94 16.43,8.69 2.5,2.39 -3.81,10.46 -3.82,10.46 -2.66,0.54 -9.84,0.08 -13.05,0.1 -1.77,0.01 -6.71,0.47 -8.08,-0.17 -1.4,-0.66 -0.19,-1.01 -3.76,-3.89l-2.26 -1.99c-4.74,-4.7 -0.89,-12.01 -1.21,-16.61zm-26.22 -17.71c0.58,5.49 1.48,6.22 3.81,9.98l1.46 1.8c0.32,0.27 0.43,0.36 0.7,0.61 2.5,2.35 1.32,1.76 5.34,3.81 2.19,1.11 5.49,1.57 7.97,1.56 -0.92,7.01 -3.05,14.67 2.07,19.73 1.65,1.63 0.37,1.05 1.77,2.12 1.18,0.89 0.27,-0.32 1.09,0.83l-20.27 -0.56 -1.9 -3.68c-2.16,-4.48 -3.39,-9.4 -4.01,-14.39 -0.71,-5.83 -0.62,-16.98 1.97,-21.81zm86.06 17.8c-7.3,-3.87 -8.74,-2.07 -9.39,-5.01 -0.21,-0.99 -0.12,-3.06 0.08,-3.98 1,-4.45 6.92,-8.63 3.6,-14.04l-2.08 -2.83c-2.45,-3.88 -0.76,-6.59 0.73,-10.93 1.11,0.63 0.43,0.18 1.25,1.18 0.26,0.32 0.29,0.41 0.6,0.7 2.3,2.18 4.5,5.3 5.99,8.05 5.29,9.76 6.78,16.88 6.5,28.01 -0.06,2.46 -1.48,12.18 -3.25,14.2 -0.23,-3.42 0.57,-5.79 -0.37,-9.57 -0.56,-2.22 -2.4,-5.11 -3.66,-5.78zm-68.05 -6.55c-3.4,-0.42 -7.25,-3.36 -8.42,-4.78l-2.18 -4.37c-1.41,-3.32 -0.7,-4.37 -3.42,-9.3 -1.41,-2.57 0.75,-3.23 2.46,-5.99l0.65 -0.99c0.72,-0.88 -0.04,0.32 0.74,-0.89 2,-3.11 -0.09,0.05 3.08,-3.14l1.54 -1.72c0.6,-0.84 1.82,-1.57 3.17,-2.71 0.07,-0.06 0.28,-0.24 0.35,-0.3l0.37 -0.29c0.05,-0.04 0.13,-0.1 0.18,-0.14l0.4 -0.26c3.2,-2.17 5.37,-3.58 9.26,-5.12 7.85,-3.1 13.36,-3.91 22.52,-3.79 0.32,2.46 3.72,9.45 1.5,10.85l-0.44 0.26c-0.31,0.16 -0.58,0.24 -0.98,0.36 -0.6,0.18 -1.1,0.28 -1.79,0.47 -2.24,0.59 -6.21,1.92 -7.76,3.63 -6.51,7.21 -2.28,10.04 -10.5,9.79 -4.19,-0.12 -8.39,-0.3 -11.4,2.56l-0.71 0.93c-1.69,2.84 -2.71,5.58 -1.95,8.98 0.55,2.47 2.37,4.43 3.33,5.96zm8.51 -0.68c-0.76,-1.14 -1.7,-2.32 -2.36,-3.34 -0.99,-1.5 -2.73,-3.5 -2.5,-5.54 0.3,-2.7 3.79,-2.17 5.84,-1.94 3.35,0.36 7.95,0.3 10.36,-1.8l1.56 -1.68c0.04,-0.05 0.11,-0.12 0.15,-0.17 1.91,-2.3 2.4,-5 3.63,-7.49 1.31,-2.65 7.31,-2.51 10.85,-4.8 1.98,-1.29 1.63,-0.68 2.88,-2.67 2.56,-4.1 0.56,-8.63 -0.93,-12.65 6.01,0.08 14.58,6.49 17.69,7.77 -0.99,2.87 -3.43,4.67 -3.63,11.01 -0.16,5.1 1.28,7.21 3.86,10.12 -0.56,5.86 -7.28,11.02 -3.43,18.35 1.25,2.39 1.87,2.85 3.64,4.2 3.95,3 8.21,1.05 9.28,6.48 0.42,2.17 -0.28,5.15 -0.3,7.52 -0.02,2.9 0.27,4 1.06,6.45l-21.35 0.11c1.58,-1.94 3.18,-5.06 3.18,-8.19 0,-1.55 -0.85,-5.28 -2.06,-6.44 -5.2,-4.99 -6.72,-2.58 -11.21,-4.42 -2.96,-1.21 -3.55,-2.21 -5.06,-4.42 -1.68,-2.47 -0.69,-0.67 -1.92,-1.99 -1.3,-1.4 -0.05,-0.77 -3.24,-2.65 -5.46,-3.2 -9.54,-3.47 -15.99,-1.82zm68.36 29.71c2.1,-3.65 2.72,-5.78 3.81,-9.91 3.92,-14.84 1.41,-31.59 -6.5,-44.48l-4.82 -6.6c-2.43,-2.01 -4.17,-4.69 -7.11,-6.61 -0.06,-0.03 -0.14,-0.09 -0.2,-0.13l-1.42 -1.18c-0.08,-0.06 -0.3,-0.22 -0.38,-0.28l-1.15 -0.81c-4.45,-3.25 -10.51,-6.42 -15.73,-7.77 -16.01,-4.16 -31.95,-2.69 -46.04,6.41l-4.79 3.37c-0.86,0.76 0.02,0.48 -1.69,1.58l-4.66 4.45c-2.16,3.21 -4.18,5.16 -6.52,9.16 -1.44,2.46 -4.12,8.59 -4.87,11.14 -4.18,14.04 -3.02,33.12 5.03,44.51 -1.18,0.56 -1.12,0.73 -1.93,1.67 -0.77,0.9 -0.64,0.47 -1.32,1.93 -2.17,4.67 -1.29,13.59 -1.32,18.86 -0.03,5.31 -0.65,14.36 1.62,18.87 0.69,1.36 0.82,2.04 1.72,3.21l3.74 3.77c0.06,0.04 0.14,0.09 0.2,0.13l0.41 0.25c1.85,1.11 2.64,1.49 4.7,2.16 4.7,1.54 33.71,0.9 39.78,0.88 5.72,-0.01 35.88,0.74 40.06,-0.93l4.48 -2.38c0.27,-0.17 0.77,-0.37 1.06,-0.59 0.51,-0.37 0.08,-0.01 0.5,-0.48l3.09 -3.45c1.31,-1.87 2.82,-5.81 2.91,-8.19 0.29,-7.44 -0.09,-18.73 0.01,-26.78 0.02,-1.51 -0.77,-4.06 -1.56,-5.33 -1.65,-2.64 -0.44,-2.16 -2.79,-3.66l1.68 -2.79z"/>
  <path class="fil0 str0" d="M41.87 155.13c-0.4,3.64 -0.41,12.6 0.74,15.64 1.67,4.45 5.15,6.7 10.06,7.01 6.18,0.39 26.08,0 33.95,0.02 8.39,0.02 26.71,0.37 33.94,0 4.75,-0.24 6.09,-1.35 8.73,-4.14 0.66,-0.71 1.36,-1.32 1.79,-2.42 1.8,-4.63 0.86,-11 1.19,-16.38l-74.62 -0.04c0.26,4.15 1.12,10.49 -3.65,10.41 -4.95,-0.09 -3.77,-5.81 -3.92,-10.1l-8.21 0z"/>
  <path class="fil2 str0" d="M68.02 100.45c6.45,-1.65 10.53,-1.38 15.99,1.82 3.19,1.88 1.94,1.25 3.24,2.65 1.23,1.32 0.24,-0.48 1.92,1.99 1.51,2.21 2.1,3.21 5.06,4.42 4.49,1.84 6.01,-0.57 11.21,4.42 1.21,1.16 2.06,4.89 2.06,6.44 0,3.13 -1.6,6.25 -3.18,8.19l21.35 -0.11c-0.79,-2.45 -1.08,-3.55 -1.06,-6.45 0.02,-2.37 0.72,-5.35 0.3,-7.52 -1.07,-5.43 -5.33,-3.48 -9.28,-6.48 -1.77,-1.35 -2.39,-1.81 -3.64,-4.2 -3.85,-7.33 2.87,-12.49 3.43,-18.35 -2.58,-2.91 -4.02,-5.02 -3.86,-10.12 0.2,-6.34 2.64,-8.14 3.63,-11.01 -3.11,-1.28 -11.68,-7.69 -17.69,-7.77 1.49,4.02 3.49,8.55 0.93,12.65 -1.25,1.99 -0.9,1.38 -2.88,2.67 -3.54,2.29 -9.54,2.15 -10.85,4.8 -1.23,2.49 -1.72,5.19 -3.63,7.49 -0.04,0.05 -0.11,0.12 -0.15,0.17l-1.56 1.68c-2.41,2.1 -7.01,2.16 -10.36,1.8 -2.05,-0.23 -5.54,-0.76 -5.84,1.94 -0.23,2.04 1.51,4.04 2.5,5.54 0.66,1.02 1.6,2.2 2.36,3.34z"/>
  <path class="fil0 str0" d="M131.98 147.95c0.13,-4.42 0.91,-9.25 -3.38,-10.31 -1.15,-0.28 -82.06,-0.38 -83.49,-0.05 -4.57,1.06 -2.95,6.02 -3.33,10.42l90.2 -0.06z"/>
  <path class="fil3 str0" d="M59.51 101.13c-0.96,-1.53 -2.78,-3.49 -3.33,-5.96 -0.76,-3.4 0.26,-6.14 1.95,-8.98l0.71 -0.93c3.01,-2.86 7.21,-2.68 11.4,-2.56 8.22,0.25 3.99,-2.58 10.5,-9.79 1.55,-1.71 5.52,-3.04 7.76,-3.63 0.69,-0.19 1.19,-0.29 1.79,-0.47 0.4,-0.12 0.67,-0.2 0.98,-0.36l0.44 -0.26c2.22,-1.4 -1.18,-8.39 -1.5,-10.85 -9.16,-0.12 -14.67,0.69 -22.52,3.79 -3.89,1.54 -6.06,2.95 -9.26,5.12l-0.4 0.26c-0.05,0.04 -0.13,0.1 -0.18,0.14l-0.37 0.29c-0.07,0.06 -0.28,0.24 -0.35,0.3 -1.35,1.14 -2.57,1.87 -3.17,2.71l-1.54 1.72c-3.17,3.19 -1.08,0.03 -3.08,3.14 -0.78,1.21 -0.02,0.01 -0.74,0.89l-0.65 0.99c-1.71,2.76 -3.87,3.42 -2.46,5.99 2.72,4.93 2.01,5.98 3.42,9.3l2.18 4.37c1.17,1.42 5.02,4.36 8.42,4.78z"/>
  <path class="fil3 str0" d="M67.72 107.59c0.32,4.6 -3.53,11.91 1.21,16.61l2.26 1.99c3.57,2.88 2.36,3.23 3.76,3.89 1.37,0.64 6.31,0.18 8.08,0.17 3.21,-0.02 10.39,0.44 13.05,-0.1 0.01,0 6.32,-8.07 3.82,-10.46 -2.88,-2.75 -9.27,1.33 -16.43,-8.69 -0.04,-0.06 -0.09,-0.14 -0.14,-0.2 -0.04,-0.05 -0.09,-0.13 -0.13,-0.18 -1.63,-2.22 -0.75,-1.59 -2.66,-2.61 -5.32,-2.85 -8.09,-1.11 -12.82,-0.42z"/>
  <path class="fil2 str0" d="M41.5 89.88c-2.59,4.83 -2.68,15.98 -1.97,21.81 0.62,4.99 1.85,9.91 4.01,14.39l1.9 3.68 20.27 0.56c-0.82,-1.15 0.09,0.06 -1.09,-0.83 -1.4,-1.07 -0.12,-0.49 -1.77,-2.12 -5.12,-5.06 -2.99,-12.72 -2.07,-19.73 -2.48,0.01 -5.78,-0.45 -7.97,-1.56 -4.02,-2.05 -2.84,-1.46 -5.34,-3.81 -0.27,-0.25 -0.38,-0.34 -0.7,-0.61l-1.46 -1.8c-2.33,-3.76 -3.23,-4.49 -3.81,-9.98z"/>
  <path class="fil3 str0" d="M131.59 123.03c1.77,-2.02 3.19,-11.74 3.25,-14.2 0.28,-11.13 -1.21,-18.25 -6.5,-28.01 -1.49,-2.75 -3.69,-5.87 -5.99,-8.05 -0.31,-0.29 -0.34,-0.38 -0.6,-0.7 -0.82,-1 -0.14,-0.55 -1.25,-1.18 -1.49,4.34 -3.18,7.05 -0.73,10.93l2.08 2.83c3.32,5.41 -2.6,9.59 -3.6,14.04 -0.2,0.92 -0.29,2.99 -0.08,3.98 0.65,2.94 2.09,1.14 9.39,5.01 1.26,0.67 3.1,3.56 3.66,5.78 0.94,3.78 0.14,6.15 0.37,9.57z"/>
  <path class="fil4 str0" d="M156.15 168.29c2.92,-0.61 5.61,-1.8 7.32,-4.19 2.41,-3.35 2.39,-4.25 2.39,-8.95 0,-7.56 0.15,-15.24 -0.01,-22.78l-9.65 -0.09 -0.05 36.01z"/>
  <path class="fil4 str0" d="M17.68 168.33l-0.02 -36.12 -9.7 0.07c0.63,6.21 0.13,15.99 0.07,22.54 -0.04,4.88 -0.16,5.53 2.21,9.14 1.4,2.16 3.8,3.5 7.44,4.37z"/>
  <path class="fil4 str0" d="M30.04 33.76c5.98,-2.88 6.71,-4.64 15.88,-5.78l-0.15 -7.72c-1.65,-0.7 -13.86,-0.31 -15.82,-0.39l0.09 13.89z"/>
  <path class="fil4 str0" d="M128.27 28.05c8.63,0.48 12.8,4.64 15.63,5.85l-0.06 -13.96 -15.55 -0.02 -0.02 8.13z"/>
  <path class="fil4 str0" d="M8.07 125.36l9.55 0.06 0.05 -16.08c-3.9,0.59 -6.32,2.88 -7.94,5.16 -2.08,2.92 -1.84,7.15 -1.66,10.86z"/>
  <path class="fil4 str0" d="M156.14 125.12c1.36,0.48 8.49,0.33 9.74,0.28 0.24,-5.98 -0.04,-10.51 -4.92,-13.94 -0.86,-0.6 -3.18,-1.82 -4.75,-2.04l-0.07 15.7z"/>
 </g>
</svg>
